<svg id="Logo" xmlns="http://www.w3.org/2000/svg" xmlns:xlink="http://www.w3.org/1999/xlink" viewBox="0 0 395.68 256.76">
  <defs>
    <style>
      .cls-1 {
        fill: #3f3f3f;
      }

      .cls-2 {
        fill: none;
        stroke: #222221;
        stroke-miterlimit: 10;
      }

      .cls-3 {
        fill: #222221;
      }

      .cls-4 {
        fill: url(#Dégradé_sans_nom_2);
      }

      .cls-5 {
        fill: url(#Dégradé_sans_nom_2-2);
      }

      .cls-6 {
        fill: url(#Dégradé_sans_nom_2-3);
      }
    </style>
    <linearGradient id="Dégradé_sans_nom_2" data-name="Dégradé sans nom 2" x1="374.08" y1="327.34" x2="384.52" y2="327.34" gradientUnits="userSpaceOnUse">
      <stop offset="0" stop-color="#fff"/>
      <stop offset="1"/>
    </linearGradient>
    <linearGradient id="Dégradé_sans_nom_2-2" x1="507.02" y1="304.9" x2="517.47" y2="304.9" xlink:href="#Dégradé_sans_nom_2"/>
    <linearGradient id="Dégradé_sans_nom_2-3" x1="249.43" y1="304.9" x2="259.88" y2="304.9" xlink:href="#Dégradé_sans_nom_2"/>
  </defs>
  <g>
    <path class="cls-1" d="M312.68,201.72l.24-.05.07,0h0l.3-.08,2.26-.63,8.57-2.35c7.38-2,17.93-4.67,30.34-8.17,3.11-.88,6.28-1.86,9.58-2.86l5.21-1.59c.9-.3,1.88-.48,2.82-.73l1.44-.35,1.46-.26a68.14,68.14,0,0,1,24.62.05A100,100,0,0,1,424,192.57a159,159,0,0,1,22.62,12.86,253.75,253.75,0,0,1,20.42,15.43l2.4,2a6.32,6.32,0,0,1,.49.45l.28.28.54.55,1.08,1.1,4.29,4.34,8.34,8.54,8,8.23,1.93,2c.62.64,1.34,1.41,1.95,2.14a37.79,37.79,0,0,1,3.37,4.65,39.49,39.49,0,0,1,4.31,9.9c.11.42.24.83.33,1.24l.15.62,0,.18.08.27c.24.78.46,1.55.69,2.32.44,1.53.83,3,1.19,4.52A99.08,99.08,0,0,1,509.45,302a27.79,27.79,0,0,1-.89,6.41c-.39,1.16-.82,1.29-1.29.31l-.11-3.13c-.1-2-.27-4.92-.67-8.48a131.26,131.26,0,0,0-6.05-27.21l-.34-1-.09-.27a3.71,3.71,0,0,1-.12-.41l-.14-.48c-.17-.63-.37-1.26-.58-1.88-.43-1.25-.92-2.48-1.48-3.7a35.21,35.21,0,0,0-4.2-6.84,36.57,36.57,0,0,0-2.72-3l-3.08-3.1-6.05-6.14c-4-4.06-7.77-8-11.26-11.71l-2.55-2.72-1.23-1.32-.27-.3a1.68,1.68,0,0,0-.23-.22l-.64-.59-4.79-4.37a190.93,190.93,0,0,0-20.29-16.36,142.79,142.79,0,0,0-13.12-8.13A111.25,111.25,0,0,0,410.87,190a79.09,79.09,0,0,0-20.78-4.4,60.76,60.76,0,0,0-12.14.32,59.35,59.35,0,0,0-6.39,1.16c-1.09.22-2.15.55-3.22.86l-3.19.92c-8.37,2.49-17.59,4.87-27.63,7.4l-15.7,4-8.32,2.2-.31.08-.64.14c-.42.08-.83.21-1.25.32a25,25,0,0,0-2.43.86,32.83,32.83,0,0,0-4.46,2.29L303,207c-.84.53-2,1.27-3.14,2.06-.32.22-.64.42-1,.67l-1,.74-1.78,1.39-2.9,2.39c-1.46,1.24-1.86,1.46.3-.65.55-.52,1.26-1.18,2.18-2a46.08,46.08,0,0,1,3.58-2.92c1.39-1,3-2.18,5.13-3.48A27.59,27.59,0,0,1,312.68,201.72Z" transform="translate(-196.7 -183.54)"/>
    <path class="cls-1" d="M282,227s.3-.38.92-1.07l2.66-3c.57-.66,1.23-1.37,2-2.12l2.4-2.45c1.73-1.78,3.79-3.66,6.16-5.68,1.2-1,2.4-2,3.93-3.09,1.36-.93,2.8-1.93,4.41-2.9a30.16,30.16,0,0,1,5.37-2.64,20.69,20.69,0,0,1,3.11-.9l.2,0,.1,0h0l.08,0,.17,0,.71-.19,1.42-.37c7.63-2,16-4,24.64-6.08s17.59-4.37,26.38-6.87a62.43,62.43,0,0,1,13.73-2.66,64.56,64.56,0,0,1,13.52.44,85.69,85.69,0,0,1,23.41,7,112.64,112.64,0,0,1,16.82,9.52c4.41,3,6.08,4.6,5.78,4.76s-2.61-1-6.44-3-9.19-4.76-15.75-7.37a92,92,0,0,0-22.6-6.14,59.13,59.13,0,0,0-25.26,2l-6.47,1.91q-3.26,1-6.4,1.83c-4.2,1.15-8.28,2.2-12.13,3.16-7.72,1.92-14.56,3.53-19.88,4.76l-6.77,1.53-2.39.49-.92.17-.48.08a.9.9,0,0,1-.23,0h-.14a17.38,17.38,0,0,0-5.19,1.25,46.07,46.07,0,0,0-6.44,3.34,62.74,62.74,0,0,0-7.25,5.28q-1.92,1.56-3.87,3.41c-1.31,1.23-2.72,2.47-4,3.89a118.54,118.54,0,0,0-16.63,21.32l-1,1.66-1,1.73c-.65,1.17-1.31,2.35-2,3.55s-1.22,2.49-1.85,3.76l-.94,1.92-.85,2a119,119,0,0,0-6.12,17.49,12.83,12.83,0,0,1,.18-1.68c.13-.66.31-1.56.59-2.77l.48-2.07c.18-.78.4-1.65.7-2.59s.62-2,1-3.15c.19-.58.38-1.18.58-1.81l.73-1.95c.52-1.34,1-2.82,1.7-4.39l2.24-5A123,123,0,0,1,282,227Z" transform="translate(-196.7 -183.54)"/>
    <path class="cls-1" d="M313.61,407a116.08,116.08,0,0,1,14.11,9.41,75.52,75.52,0,0,1,5.93,5.23c.93.89,1.76,1.83,2.64,2.73.42.42.9,1,1.35,1.49s.95,1,1.46,1.52a32.63,32.63,0,0,0,13.9,8.42,29.56,29.56,0,0,0,3.87.8c.65.08,1.29.16,1.94.19l.79,0h.07l.13,0,.44.08c2.33.39,4.61.7,6.86.94A126.46,126.46,0,0,0,392,438l1.42-.14.73-.08.52,0a4,4,0,0,0,.49-.15l1.39-.46,1.3-.45c1.73-.6,3.4-1.24,5-1.88,3.26-1.29,6.34-2.64,9.26-4A183.28,183.28,0,0,0,440.85,414a205.15,205.15,0,0,0,20.32-16.31,247.6,247.6,0,0,0,20.91-21c1.87-2.08,3.6-4.33,5.4-6.54s3.47-4.55,5.06-6.93,3.14-4.79,4.64-7.12a7.93,7.93,0,0,0,.38-.75l.45-.94.85-1.87c.55-1.25,1.06-2.51,1.54-3.76a76.08,76.08,0,0,0,2.38-7.44c.34-1.22.59-2.42.91-3.69s.55-2.38.8-3.54c1-4.62,1.6-8.84,2-12.41s.57-6.47.67-8.48.11-3.13.11-3.13c.9-2,1.82.56,2.19,6.71a101.68,101.68,0,0,1-2.88,27.77,74.35,74.35,0,0,1-2.92,9.21c-.3.79-.62,1.57-1,2.36l-.52,1.19-.27.59-.13.3a4.32,4.32,0,0,1-.22.43c-.9,1.49-1.81,3-2.73,4.56a141.34,141.34,0,0,1-13.61,18.23c-10.5,12-23.82,23.06-38.11,32.61-3.58,2.4-7.18,4.72-10.87,7s-7.52,4.29-11.3,6.32a189.28,189.28,0,0,1-23.14,10.21c-1.95.69-3.9,1.36-5.85,1.95a4.78,4.78,0,0,1-1.39.31l-.93.09-1.51.12c-1,.08-2,.14-3,.19-4,.21-7.94.22-11.77.08s-7.54-.45-11.14-.91c-1.8-.22-3.56-.49-5.29-.79l-1.29-.23-.16,0h.06l-.67,0c-1,0-1.91-.2-2.85-.33a32.85,32.85,0,0,1-5.37-1.46,34.13,34.13,0,0,1-4.75-2.27,37,37,0,0,1-7.48-5.84c-1.05-1-2-2.15-2.79-3.06l-2.26-2.44c-1.54-1.51-3-2.9-4.35-4.07s-2.65-2.17-3.73-3.07l-2.9-2.14-2.49-1.71c-4.61-3.05-8.41-5.17-11.27-6.81l-6.14-3.45c-2.52-1.44-2.1-1.33-.42-.54s4.6,2.26,7.08,3.55c1.24.64,2.35,1.26,3.17,1.7S313.61,407,313.61,407Z" transform="translate(-196.7 -183.54)"/>
    <path class="cls-1" d="M323.42,406.49a61.59,61.59,0,0,1,9.47,6.28,70.7,70.7,0,0,1,7.17,6.51c1.34,1.33,2.39,2.6,3.62,3.77a31.88,31.88,0,0,0,4,3.29,23.38,23.38,0,0,0,10,4c.47.05.92.13,1.39.14l.71,0,.33,0c.13,0,.26,0,.38,0l.57.1c1,.18,2.1.35,3.16.5q3.19.47,6.48.75a129.67,129.67,0,0,0,13.24.49q3.31,0,6.6-.27l1.63-.11,1.35-.12,1.08-.33,1.53-.49a188.17,188.17,0,0,0,22.2-9c3.25-1.52,6.17-3,8.81-4.35.66-.33,1.31-.63,1.92-1l1.74-1L434,414c3.79-2.13,6.13-3.3,6.43-3.15s-1.39,1.69-5.73,4.87c-2.18,1.55-4.59,3.33-7.4,4.95l-4.34,2.6c-1.51.87-3.09,1.76-4.72,2.64a154.84,154.84,0,0,1-22.31,10l-.77.27a3.57,3.57,0,0,1-.91.25l-1.69.2c-1.11.12-2.22.23-3.34.32-2.23.18-4.5.3-6.78.37a126.35,126.35,0,0,1-13.86-.39q-3.48-.3-7-.81l-1.71-.27a.82.82,0,0,0-.21,0l-.45,0-.92-.05c-.62-.05-1.23-.13-1.84-.2l-1.82-.33a30.42,30.42,0,0,1-12.88-6.53c-.91-.77-1.78-1.57-2.6-2.4s-1.6-1.73-2.32-2.48l-2.17-2.24-2.26-2.12a91,91,0,0,0-9.38-7.32,191.4,191.4,0,0,0-17.88-10.35c-5.3-2.78-9.68-5.07-12.69-6.73s-4.67-2.65-4.67-2.65l-1-.6-.1-.06-.06,0a1.6,1.6,0,0,1-.31-.1,24,24,0,0,1-2.46-1,18,18,0,0,1-4.52-3,12.64,12.64,0,0,1-1.87-2.17,6.57,6.57,0,0,1-.4-.62l-.28-.49-.11-.23-.12-.13-.62-.71-.68-.82c-.44-.55-.86-1.1-1.26-1.64a64.81,64.81,0,0,1-4.05-6.27l-1.63-2.87L266.83,369c-.93-1.74-1.66-3.43-2.4-5s-1.31-3-1.85-4.33-1-2.59-1.42-3.72-.73-2.18-1.05-3.12c-.61-1.89-1-3.42-1.34-4.61s-.48-2.11-.62-2.76a13.16,13.16,0,0,1-.27-1.66,123.29,123.29,0,0,0,14.67,31.68,54.58,54.58,0,0,0,4.58,6.08l.62.68.31.33.23.24c.17.13.24.39.36.58s.35.57.54.83a11.77,11.77,0,0,0,2.74,2.64,16.92,16.92,0,0,0,3.09,1.67c.52.23,1,.42,1.56.6.26.08.54.18.78.24a1.8,1.8,0,0,1,.57.23c1.85,1,3.64,1.92,5.38,2.78,6.95,3.45,13,6.05,18,8.34S320.31,405,323.42,406.49Z" transform="translate(-196.7 -183.54)"/>
    <path class="cls-1" d="M279.48,238.58c4.76-4.76-1.47,3.89-6.56,14.88-.65,1.37-1.33,2.75-1.89,4.17s-1.22,2.81-1.77,4.2c-1,2.8-2.08,5.44-2.78,7.81-.38,1.17-.73,2.25-1,3.22s-.5,1.84-.69,2.55l-.62,2.24a126.43,126.43,0,0,0-3.78,25.08c-.05,2-.11,3.95-.16,5.87s0,3.77.09,5.58.14,3.57.31,5.25c.07.85.14,1.68.2,2.49s.19,1.61.28,2.39a126.65,126.65,0,0,0,2.62,14.78c.43,1.74.75,3.12,1,4l.4,1.42.16.58c.11.39.27.95.5,1.65.44,1.4,1.06,3.39,1.9,5.71a137.58,137.58,0,0,0,6.92,16c1.4,2.69,2.75,5.27,4.08,7.38.65,1.06,1.3,2,1.89,2.88l.44.61.22.3.11.14.18.23a2.79,2.79,0,0,1,.59.9l.3.73c.4,1,1,1.76,1,2s-.54.2-1.59-.73a5.33,5.33,0,0,1-1.11-1.42c-.26-.28-.65-.61-.85-.8l-.73-.67a37.83,37.83,0,0,1-2.89-3.1,76.46,76.46,0,0,1-5.55-7.72,107.91,107.91,0,0,1-9.57-19A115.29,115.29,0,0,1,255.29,330a122.18,122.18,0,0,1-2-17c0-1.67-.09-3.35,0-5,.13-2.37.16-5.05.52-7.92.15-1.44.27-2.94.48-4.47s.49-3.09.74-4.71a122.71,122.71,0,0,1,5.33-20,109.41,109.41,0,0,1,8.92-18.58A83.64,83.64,0,0,1,279.48,238.58Z" transform="translate(-196.7 -183.54)"/>
  </g>
  <path class="cls-2" d="M434.19,304.9c3.09-7.72,66.29.13,85.37,2.67,12.5,1.66,22.29,3.5,34.82,2.06,11.76-1.35,26.71-2.17,37.93-2.49-1-.14-1.3.54-2.25,1" transform="translate(-196.7 -183.54)"/>
  <path class="cls-2" d="M372.9,304.84c1.08-4,2.92-.57,4.58.84,3.77,3.21,8,.88,11.83-1.05,6.1-3.1,10.46-6.59,16.75-7.3" transform="translate(-196.7 -183.54)"/>
  <path class="cls-2" d="M209.09,307.27c0-4.73,28.53,4.45,38.1-.4,11.81-6,26.8,3.54,40.15,4.17,8.77.41,17.21-.84,25.53.33" transform="translate(-196.7 -183.54)"/>
  <path class="cls-2" d="M196.7,283.94c63,.05,66.65,51.21,103.79,44.69,17.74-3.12,34.68-5.79,44.93-2.58,15.66,4.91,28.11,3.89,78.42,3.71,7,0,26.43-6.15,27.88-6.65,6.51-2.25,14.31-6.84,15.83-7.39,10.44-3.81,39.35-7.4,44.69-10.82,17.65-11.28,33.12-7.37,56.59-5.68" transform="translate(-196.7 -183.54)"/>
  <g>
    <path class="cls-3" d="M341,309.63v-1.9h4.77V302a18.29,18.29,0,0,0-.62-4.81,11.8,11.8,0,0,0-2.39-4.48,13.17,13.17,0,0,0-2.84-2.59,13.93,13.93,0,0,0-3.37-1.67q-.72,2.29-1.38,4.62c-.44,1.54-.85,3.1-1.24,4.67-.61,2.23-1.23,4.45-1.87,6.68s-1.36,4.41-2.19,6.54a13.45,13.45,0,0,0,4.45.79v1.9l-1.31-.13-1.24-.13c-.44-.09-.87-.19-1.31-.3s-.87-.23-1.31-.36a22.84,22.84,0,0,1-4.91,7.46,10.23,10.23,0,0,1-7.46,2.88,9,9,0,0,1-5.59-1.9A6.12,6.12,0,0,1,308.7,316a5.48,5.48,0,0,1,1.6-4,5,5,0,0,1,4.85-1.51,4.61,4.61,0,0,1,1.07.4.13.13,0,0,1,.1,0,.17.17,0,0,0,.1,0,4.34,4.34,0,0,1,1.34,1.22,3.53,3.53,0,0,1,.75,1.66v.26a3.39,3.39,0,0,1-.22.86,1.71,1.71,0,0,1-.62.71,3,3,0,0,1-.63.3,1.89,1.89,0,0,1-.55.1,2.45,2.45,0,0,1-1.74-.82,4.73,4.73,0,0,1-1.14-1.8,2.56,2.56,0,0,0,0-.39,1.72,1.72,0,0,1,0-.39v-.33a3.44,3.44,0,0,0-2.16,1.27,3.83,3.83,0,0,0-.78,2.39,4.33,4.33,0,0,0,1.76,3.67,7.67,7.67,0,0,0,3.93,1.5h.52a8.47,8.47,0,0,0,6.32-2.58,23,23,0,0,0,4.35-6.65,15.27,15.27,0,0,1-6-5.33,13.48,13.48,0,0,1-2.32-7.62v-.62a2,2,0,0,1,.07-.56,12.27,12.27,0,0,1,4.44-8.67,13.71,13.71,0,0,1,9-3.24h.65a5,5,0,0,1,.73.06,3.69,3.69,0,0,1,.65.07l.65.13c.18-.57.37-1.13.59-1.7s.46-1.15.72-1.77a29.17,29.17,0,0,1,4.78-7.69,10,10,0,0,1,8-3.5h5v1.9h-3.86v34.29h4.52v1.9Zm-7.37-21.76-1.07,0a11.76,11.76,0,0,0-7.69,2.75,10.2,10.2,0,0,0-3.77,7.39v.53a1.1,1.1,0,0,0-.06.32v.26a12.23,12.23,0,0,0,2,6.55,13,13,0,0,0,5.11,4.58,67.89,67.89,0,0,0,2.19-6.45c.63-2.2,1.23-4.42,1.8-6.64.05-.17.09-.34.13-.49s.09-.32.13-.49c.35-1.35.71-2.7,1.08-4.06s.78-2.7,1.21-4.06A6.39,6.39,0,0,0,333.66,287.87Zm12.08-13.64a11.45,11.45,0,0,0-5,4.71,38.83,38.83,0,0,0-3.53,7.79,14.79,14.79,0,0,1,4.9,2.65,15.23,15.23,0,0,1,3.67,4.28Z" transform="translate(-196.7 -183.54)"/>
    <path class="cls-3" d="M371.62,308.58a4,4,0,0,1-2.72,1.05,3.74,3.74,0,0,1-1.89-.52,3.48,3.48,0,0,1-1.44-1.64,9.28,9.28,0,0,1-2.29,1.54,5.56,5.56,0,0,1-2.69.55,5.34,5.34,0,0,1-1.67-.26,4.65,4.65,0,0,1-1.53-.85,3.59,3.59,0,0,1-1-1.27,3.71,3.71,0,0,1-.36-1.61V294.91h4.58v11.64a.75.75,0,0,0,.3.63,1.44,1.44,0,0,0,.68.29h.4a.64.64,0,0,1,.19-.07,5.45,5.45,0,0,0,1.71-1,5.2,5.2,0,0,0,1.24-1.5v-10h4.58v12.43a.55.55,0,0,1,.16.1s.06,0,.1,0H370a.05.05,0,0,1,.06-.06,1.23,1.23,0,0,0,.66-.65,2.37,2.37,0,0,0,.19-.92h1.9A3.5,3.5,0,0,1,371.62,308.58Z" transform="translate(-196.7 -183.54)"/>
  </g>
  <g>
    <path d="M416.84,275.23a2.83,2.83,0,0,0-.78-.56,2.21,2.21,0,0,0-1-.23h-.2l.07,21.47h2.22v1.89H415v22.55h-4.52V297.8h-2.16v-1.89h2.16V277.12a4.18,4.18,0,0,1,1.44-3.33,4.72,4.72,0,0,1,3.14-1.25,4.78,4.78,0,0,1,1.67.3,3.51,3.51,0,0,1,1.47,1Z" transform="translate(-196.7 -183.54)"/>
    <path d="M422.15,289.88a2.78,2.78,0,0,1-2,.86,2.72,2.72,0,0,1-2.06-.86,2.79,2.79,0,0,1-.82-2,2.9,2.9,0,0,1,.82-2.1,2.72,2.72,0,0,1,2.06-.85,2.77,2.77,0,0,1,2,.85,2.89,2.89,0,0,1,.85,2.1A2.77,2.77,0,0,1,422.15,289.88Zm2.25,19.57a3.75,3.75,0,0,1-2.71,1.11,3.68,3.68,0,0,1-2.69-1.11,3.74,3.74,0,0,1-1.11-2.75V296.3h4.45v11.78a.37.37,0,0,0,.1.23.33.33,0,0,0,.23.09.19.19,0,0,0,.13-.06,2.59,2.59,0,0,0,.62-.75,1.79,1.79,0,0,0,.23-.89h1.9A3.66,3.66,0,0,1,424.4,309.45Z" transform="translate(-196.7 -183.54)"/>
    <path d="M432.81,275.23a2,2,0,0,0-.72-.56,2.17,2.17,0,0,0-1-.23h-.19v33.64a.31.31,0,0,0,.32.32.18.18,0,0,0,.13-.06,2.8,2.8,0,0,0,.63-.75,1.89,1.89,0,0,0,.22-.89h1.9a3.69,3.69,0,0,1-1.14,2.75,3.89,3.89,0,0,1-5.44,0,3.69,3.69,0,0,1-1.14-2.75V277.12a4.33,4.33,0,0,1,1.38-3.23,4.41,4.41,0,0,1,3.2-1.35,4.64,4.64,0,0,1,1.74.33,4.56,4.56,0,0,1,1.47,1Z" transform="translate(-196.7 -183.54)"/>
  </g>
  <path d="M320.8,330.28a3.08,3.08,0,0,0-.79-.55,2.05,2.05,0,0,0-1-.23h-.19v23.63c0,.22.07.32.23.3a1.13,1.13,0,0,0,.49-.23,2.93,2.93,0,0,0,.39-.52,2,2,0,0,0,.26-.66v-.26H322a3.5,3.5,0,0,1-1.21,2.81,4,4,0,0,1-2.71,1.05h-.26a.66.66,0,0,1-.27-.06,3.25,3.25,0,0,1-1.27-.43,4.16,4.16,0,0,1-1.15-1,5.66,5.66,0,0,1-1.93,1.21,6.12,6.12,0,0,1-2.06.36,6.32,6.32,0,0,1-4.55-2.23,7.35,7.35,0,0,1-2-5.17,7.62,7.62,0,0,1,2-5.14,5.73,5.73,0,0,1,4.58-2.19,5.14,5.14,0,0,1,.78.07l.86.13a6.5,6.5,0,0,1,.78.33c.26.13.52.28.79.45v-9.76a4.19,4.19,0,0,1,1.44-3.34A4.74,4.74,0,0,1,319,327.6a5.1,5.1,0,0,1,1.67.29,3.77,3.77,0,0,1,1.47,1Zm-6.41,14.15a4.15,4.15,0,0,0-1.12-1,1.59,1.59,0,0,0-1-.23,2.11,2.11,0,0,0-1.84,1.31,7.31,7.31,0,0,0-.85,2.88,2.12,2.12,0,0,0-.06.49v.42a8.53,8.53,0,0,0,.26,2.16,6,6,0,0,0,.72,1.7.13.13,0,0,0,0,.1l.1.1a3.93,3.93,0,0,0,.72.78,1.51,1.51,0,0,0,1,.4h.13a.19.19,0,0,0,.13-.07.35.35,0,0,0,.14,0,.28.28,0,0,1,.13,0,3.6,3.6,0,0,0,.85-.52,9.17,9.17,0,0,0,.72-.65Z" transform="translate(-196.7 -183.54)"/>
  <path d="M333.3,354.93a7.79,7.79,0,0,1-3.34.76h-.39a1.07,1.07,0,0,1-.39-.07,7.67,7.67,0,0,1-2.33-.65,8,8,0,0,1-2.12-1.44,7.16,7.16,0,0,1-1.74-2.46,7,7,0,0,1-.55-2.71,7.43,7.43,0,0,1,2.19-5.11,7.56,7.56,0,0,1,5.53-2.29h.2a6.9,6.9,0,0,1,3.1.85,3.34,3.34,0,0,1,1.67,2.62V345a3.93,3.93,0,0,1-1.47,3.18,10.74,10.74,0,0,1-3.3,1.86c-.35.13-.7.26-1.05.36l-1,.3-.2.06a3.62,3.62,0,0,0,.17.53c.06.17.11.35.16.52a6.13,6.13,0,0,0,.82,1.41,1.44,1.44,0,0,0,1.34.55h.19a5.39,5.39,0,0,0,2.13-.72,6.24,6.24,0,0,0,1.73-1.44l1.44,1.18A7.75,7.75,0,0,1,333.3,354.93Zm-.72-11.48a2.8,2.8,0,0,0-1.24-.46.73.73,0,0,0-.3-.06h-.29a1.93,1.93,0,0,0-1.7,1,6.85,6.85,0,0,0-.92,2.29,6.93,6.93,0,0,0-.26,1.28,9,9,0,0,0-.07,1.08v.19l1.05-.29a9.26,9.26,0,0,0,1.18-.42,7.78,7.78,0,0,0,2.22-1.25,2.41,2.41,0,0,0,1-2v-.26A1.5,1.5,0,0,0,332.58,343.45Z" transform="translate(-196.7 -183.54)"/>
  <path d="M347.07,354.12a7.14,7.14,0,0,1-2.65,1.37l-.85.13a4.11,4.11,0,0,1-.78.07v-.07h-.2a7,7,0,0,1-.91-.06,8.76,8.76,0,0,1-3.34-1.28,3.41,3.41,0,0,1-1.44-2,.47.47,0,0,0,0-.19.37.37,0,0,1,0-.2v-.33a2.37,2.37,0,0,1,.49-1.47,1.92,1.92,0,0,1,1.41-.69h.2a2.58,2.58,0,0,1,2,1,3.38,3.38,0,0,1,.92,2.06v.46a.59.59,0,0,1-.07.26.58.58,0,0,1-.06.26l-.14.27.56.1a1.49,1.49,0,0,0,.56,0h.39c.22,0,.43-.08.62-.13a1.29,1.29,0,0,0,.49-.2.41.41,0,0,0,.2-.16,1.12,1.12,0,0,1,.13-.16.67.67,0,0,1,0-.17.5.5,0,0,0,0-.16q0-.25-.45-.72c-.31-.3-.66-.63-1.05-1a.94.94,0,0,1-.23-.16.81.81,0,0,0-.23-.17c-.35-.3-.69-.57-1-.81l-.75-.56c-.18-.13-.34-.26-.5-.39a2,2,0,0,0-.49-.33,17,17,0,0,1-1.83-1.73,3,3,0,0,1-.78-2,3,3,0,0,1,1.17-2.46,6.46,6.46,0,0,1,2.62-1.27,3.65,3.65,0,0,1,.75-.17l.69,0,.66,0a4.63,4.63,0,0,0,.65,0,6.64,6.64,0,0,1,2.36.85,3.05,3.05,0,0,1,1.44,2,.61.61,0,0,0,0,.17.55.55,0,0,1,0,.16v.33a2.4,2.4,0,0,1-.46,1.47,1.75,1.75,0,0,1-1.37.68h-.07a2.51,2.51,0,0,1-1.93-.91,3.21,3.21,0,0,1-.88-2v-.36a.25.25,0,0,1,.06-.17.62.62,0,0,1,0-.16.61.61,0,0,0,0-.16h-.13a.19.19,0,0,1-.13-.07h-.72a2.26,2.26,0,0,0-.85.29.71.71,0,0,0-.39.63c0,.13.15.33.45.62s.66.58,1.05.88a.54.54,0,0,0,.16.2l.23.13c.31.26.61.5.92.72l.72.52a28.43,28.43,0,0,1,2.71,2.13,3.34,3.34,0,0,1,1.22,2.58A3.15,3.15,0,0,1,347.07,354.12Z" transform="translate(-196.7 -183.54)"/>
  <path d="M372.37,355.07a6.24,6.24,0,0,1-2.56.55,3.79,3.79,0,0,1-.49,0,3.68,3.68,0,0,0-.49,0,8,8,0,0,1-1-.33,7.58,7.58,0,0,1-.95-.46v15.58h-4.52V338.08h4.52v3.73l.75-.36c.24-.11.49-.2.75-.29l.76-.13a4.44,4.44,0,0,1,.75-.07,6,6,0,0,1,2.52.56,5.93,5.93,0,0,1,2.12,1.67,7.55,7.55,0,0,1,1.41,2.39,7.08,7.08,0,0,1,.43,2.78,8.21,8.21,0,0,1-.46,2.68,8,8,0,0,1-1.38,2.42A6.37,6.37,0,0,1,372.37,355.07Zm-1.15-4.42a9.34,9.34,0,0,0,.29-1.77V347.7a9.11,9.11,0,0,0-.29-1.76,5.9,5.9,0,0,0-.62-1.51.12.12,0,0,0,0-.1l-.09-.1a6.5,6.5,0,0,0-.79-.78,1.47,1.47,0,0,0-1-.39h-.13s-.07,0-.07.06l-.13,0a.22.22,0,0,1-.13,0,4.37,4.37,0,0,0-.72.45c-.22.18-.43.38-.65.59v8.18a9.35,9.35,0,0,0,1,.79,1.73,1.73,0,0,0,.95.33,1.45,1.45,0,0,0,.89-.33,4.31,4.31,0,0,0,.88-1.05A5.68,5.68,0,0,0,371.22,350.65Z" transform="translate(-196.7 -183.54)"/>
  <path d="M384,354.51a3.77,3.77,0,0,1-2.72,1.11,3.66,3.66,0,0,1-2.68-1.11,3.74,3.74,0,0,1-1.11-2.75v-10.4h4.45v11.77a.34.34,0,0,0,.33.33.19.19,0,0,0,.13-.07,2.35,2.35,0,0,0,.62-.75,1.83,1.83,0,0,0,.23-.88h1.9A3.7,3.7,0,0,1,384,354.51Z" transform="translate(-196.7 -183.54)"/>
  <path d="M396.32,354.93a7.82,7.82,0,0,1-3.34.76h-.39a1.12,1.12,0,0,1-.4-.07,7.61,7.61,0,0,1-2.32-.65,8.17,8.17,0,0,1-2.13-1.44,7.13,7.13,0,0,1-1.73-2.46,7,7,0,0,1-.55-2.71,7.43,7.43,0,0,1,2.19-5.11,7.54,7.54,0,0,1,5.53-2.29h.19a6.94,6.94,0,0,1,3.11.85,3.37,3.37,0,0,1,1.67,2.62V345a3.93,3.93,0,0,1-1.47,3.18,10.79,10.79,0,0,1-3.31,1.86c-.35.13-.7.26-1.05.36l-1,.3-.19.06a5.34,5.34,0,0,0,.16.53,5.25,5.25,0,0,1,.17.52,6.1,6.1,0,0,0,.81,1.41,1.47,1.47,0,0,0,1.35.55h.19A5.44,5.44,0,0,0,396,353a6.55,6.55,0,0,0,1.73-1.44l1.44,1.18A7.75,7.75,0,0,1,396.32,354.93Zm-.72-11.48a2.8,2.8,0,0,0-1.25-.46.65.65,0,0,0-.29-.06h-.29a2,2,0,0,0-1.71,1,7,7,0,0,0-.91,2.29,7.92,7.92,0,0,0-.27,1.28q-.06.61-.06,1.08v.19l1.05-.29a9.84,9.84,0,0,0,1.18-.42,7.92,7.92,0,0,0,2.22-1.25,2.42,2.42,0,0,0,1-2v-.26A1.47,1.47,0,0,0,395.6,343.45Z" transform="translate(-196.7 -183.54)"/>
  <path d="M411.76,346.49a2,2,0,0,1-.79.16l-.62-.13a2,2,0,0,1-.62-.26,2.87,2.87,0,0,1-1-1,3.76,3.76,0,0,1-.55-1.37v-.53a.49.49,0,0,1,.06-.19.68.68,0,0,1,0-.17.55.55,0,0,0,0-.16H408l-.42,0a4.45,4.45,0,0,0-1,.26,3.45,3.45,0,0,0-.43.23,3.92,3.92,0,0,1,.2.69,4.56,4.56,0,0,1,.06.75v10.87h-4.45V343.32a.17.17,0,0,1-.13-.07.18.18,0,0,1-.06-.13h-.2c0,.05,0,.07-.07.07a1.93,1.93,0,0,0-.62.68,2,2,0,0,0-.22.95h-1.9A3.51,3.51,0,0,1,400,342,4,4,0,0,1,402.6,341a4.21,4.21,0,0,1,1.27.2,2.78,2.78,0,0,1,1.15.72,6.54,6.54,0,0,1,1.57-.69,5.93,5.93,0,0,1,3.27,0,5.56,5.56,0,0,1,1.51.69,2.86,2.86,0,0,1,1,1,3.86,3.86,0,0,1,.56,1.37v.33a2.61,2.61,0,0,1-.1.75,1.62,1.62,0,0,1-.43.69A1.58,1.58,0,0,1,411.76,346.49Z" transform="translate(-196.7 -183.54)"/>
  <path d="M427.07,346.49a2,2,0,0,1-.78.16l-.63-.13a2.11,2.11,0,0,1-.62-.26,2.77,2.77,0,0,1-1-1,3.62,3.62,0,0,1-.56-1.37v-.53a.4.4,0,0,1,.07-.19.61.61,0,0,1,0-.17.55.55,0,0,0,0-.16h-.32l-.43,0c-.15,0-.32.06-.49.1s-.34.1-.49.16a4.34,4.34,0,0,0-.43.23,3.22,3.22,0,0,1,.2.69,4.54,4.54,0,0,1,.07.75v10.87h-4.45V343.32a.26.26,0,0,1-.2-.2h-.2c0,.05,0,.07-.06.07a1.85,1.85,0,0,0-.62.68,1.94,1.94,0,0,0-.23.95h-1.9a3.51,3.51,0,0,1,1.21-2.81,4,4,0,0,1,2.65-1.05,4.28,4.28,0,0,1,1.28.2,2.82,2.82,0,0,1,1.14.72,6.71,6.71,0,0,1,1.57-.69,6,6,0,0,1,1.64-.23,5.89,5.89,0,0,1,1.63.23,5.56,5.56,0,0,1,1.51.69,2.86,2.86,0,0,1,1,1,3.68,3.68,0,0,1,.56,1.37v.33a2.61,2.61,0,0,1-.1.75,1.53,1.53,0,0,1-.43.69A1.58,1.58,0,0,1,427.07,346.49Z" transform="translate(-196.7 -183.54)"/>
  <path d="M440.29,354.93a7.79,7.79,0,0,1-3.34.76h-.39a1.07,1.07,0,0,1-.39-.07,7.67,7.67,0,0,1-2.33-.65,8,8,0,0,1-2.12-1.44,7,7,0,0,1-2.29-5.17,7.43,7.43,0,0,1,2.19-5.11,7.56,7.56,0,0,1,5.53-2.29h.19a6.9,6.9,0,0,1,3.11.85,3.34,3.34,0,0,1,1.67,2.62V345a3.93,3.93,0,0,1-1.47,3.18,10.67,10.67,0,0,1-3.31,1.86c-.34.13-.69.26-1,.36l-1,.3-.2.06a5.34,5.34,0,0,0,.16.53,5.25,5.25,0,0,1,.17.52,6.13,6.13,0,0,0,.82,1.41,1.44,1.44,0,0,0,1.34.55h.19a5.39,5.39,0,0,0,2.13-.72,6.39,6.39,0,0,0,1.73-1.44l1.44,1.18A7.75,7.75,0,0,1,440.29,354.93Zm-.72-11.48a2.8,2.8,0,0,0-1.24-.46.73.73,0,0,0-.3-.06h-.29a1.93,1.93,0,0,0-1.7,1,6.85,6.85,0,0,0-.92,2.29,6.93,6.93,0,0,0-.26,1.28,9,9,0,0,0-.07,1.08v.19l1-.29a9.26,9.26,0,0,0,1.18-.42,7.78,7.78,0,0,0,2.22-1.25,2.41,2.41,0,0,0,1-2v-.26A1.5,1.5,0,0,0,439.57,343.45Z" transform="translate(-196.7 -183.54)"/>
  <path d="M454.06,354.07c-2.52,2.88-5.52,1.88-8.73.21a3.37,3.37,0,0,1-1.44-2,.34.34,0,0,0,0-.19.53.53,0,0,1,0-.2v-.33a2.37,2.37,0,0,1,.49-1.47,1.92,1.92,0,0,1,1.41-.69h.2a2.58,2.58,0,0,1,2,1c.66.59.66,2.59.66,3.59,1,0,3,1,3-2,0-2-3,0-3-2l-.76-.56-.49-.39a2,2,0,0,0-.49-.33,16.15,16.15,0,0,1-1.83-1.73,3,3,0,0,1-.79-2,3,3,0,0,1,1.18-2.46,6.46,6.46,0,0,1,2.62-1.27,3.65,3.65,0,0,1,.75-.17l.69,0,.66,0a4.63,4.63,0,0,0,.65,0,6.52,6.52,0,0,1,2.35.85,3,3,0,0,1,1.44,2,.68.68,0,0,0,0,.17.55.55,0,0,1,0,.16v.33a2.4,2.4,0,0,1-.46,1.47,1.75,1.75,0,0,1-1.37.68h-.07a2.51,2.51,0,0,1-1.93-.91,3.15,3.15,0,0,1-.88-2v-.36a.25.25,0,0,1,.06-.17.37.37,0,0,1,0-.16.61.61,0,0,0,0-.16h-.13a.19.19,0,0,1-.13-.07h-.72a2.26,2.26,0,0,0-.85.29.7.7,0,0,0-.4.63c0,.13.16.33.46.62s.66.58,1.05.88a.54.54,0,0,0,.16.2,2.36,2.36,0,0,0,.23.13c.31.26.61.5.92.72l.72.52c2.19,1.09,4.19,2.09,3.93,4.69A3.14,3.14,0,0,1,454.06,354.07Z" transform="translate(-196.7 -183.54)"/>
  <path d="M385.67,333.57a10.09,10.09,0,0,1-5.71,1.58,10,10,0,0,1-5.8-1.58,4.5,4.5,0,0,1-2.3-3.75,4.6,4.6,0,0,1,2.3-3.88,10,10,0,0,1,5.8-1.58,10.17,10.17,0,0,1,5.71,1.58,4.59,4.59,0,0,1,2.39,3.88A4.5,4.5,0,0,1,385.67,333.57Z" transform="translate(-196.7 -183.54)"/>
  <path d="M517.59,310.42a9.45,9.45,0,0,1-5.34,1.49,9.33,9.33,0,0,1-5.43-1.49,4.2,4.2,0,0,1-2.16-3.51,4.31,4.31,0,0,1,2.16-3.64,9.4,9.4,0,0,1,5.43-1.47,9.52,9.52,0,0,1,5.34,1.47,4.31,4.31,0,0,1,2.24,3.64A4.21,4.21,0,0,1,517.59,310.42Z" transform="translate(-196.7 -183.54)"/>
  <path d="M261.12,310.42a9.48,9.48,0,0,1-5.35,1.49,9.35,9.35,0,0,1-5.43-1.49,4.2,4.2,0,0,1-2.16-3.51,4.31,4.31,0,0,1,2.16-3.64,9.42,9.42,0,0,1,5.43-1.47,9.55,9.55,0,0,1,5.35,1.47,4.3,4.3,0,0,1,2.23,3.64A4.19,4.19,0,0,1,261.12,310.42Z" transform="translate(-196.7 -183.54)"/>
  <path class="cls-4" d="M384.52,328.38c-6.39-2.33-6.56,1.34-9.49.86-2.09-.35-.31-2.79,1.29-3.42a7.22,7.22,0,0,1,6.11.53A4.84,4.84,0,0,1,384.52,328.38Z" transform="translate(-196.7 -183.54)"/>
  <path class="cls-5" d="M517.47,305.94c-6.39-2.33-6.57,1.35-9.5.86-2.09-.34-.31-2.79,1.29-3.41a7.22,7.22,0,0,1,6.11.53A5,5,0,0,1,517.47,305.94Z" transform="translate(-196.7 -183.54)"/>
  <path class="cls-6" d="M259.88,305.94c-6.39-2.33-6.56,1.35-9.5.86-2.08-.34-.31-2.79,1.29-3.41a7.22,7.22,0,0,1,6.11.53A4.89,4.89,0,0,1,259.88,305.94Z" transform="translate(-196.7 -183.54)"/>
</svg>
